<?xml version="1.0" standalone="no"?>
<!DOCTYPE svg PUBLIC "-//W3C//DTD SVG 20010904//EN"
 "http://www.w3.org/TR/2001/REC-SVG-20010904/DTD/svg10.dtd">
<svg version="1.0" xmlns="http://www.w3.org/2000/svg"
 width="900.000000pt" height="135.000000pt" viewBox="0 0 900.000000 135.000000"
 preserveAspectRatio="xMidYMid meet">
<metadata>
Created by potrace 1.10, written by Peter Selinger 2001-2011
</metadata>
<g transform="translate(0.000000,135.000000) scale(0.100000,-0.100000)"
fill="#000000" stroke="none">
<path d="M22 653 l3 -628 100 -3 c55 -1 107 2 115 8 13 8 15 59 18 340 2 189
7 330 12 330 5 0 29 -39 54 -87 24 -49 70 -137 100 -198 31 -60 83 -159 114
-220 l58 -110 106 -3 c76 -2 108 1 115 10 13 17 46 82 184 361 62 125 116 227
120 227 15 0 19 -41 22 -195 l2 -150 111 -3 c109 -3 112 -2 118 20 8 30 8 891
0 912 -5 13 -25 16 -120 16 l-115 0 -60 -127 c-33 -71 -69 -146 -79 -168 -36
-78 -89 -191 -128 -275 -42 -90 -91 -196 -125 -270 -19 -42 -33 -59 -48 -60
-4 0 -22 33 -42 73 -153 314 -316 648 -356 727 l-48 95 -117 3 -116 3 2 -628z"/>
<path d="M1457 1273 c-4 -3 -7 -281 -7 -618 0 -462 3 -614 12 -623 9 -9 86
-12 284 -12 237 0 275 2 289 16 13 13 15 35 13 118 l-3 101 -175 5 -175 5 0
135 0 135 242 5 c155 3 246 9 253 16 7 7 10 48 8 110 l-3 99 -245 3 c-180 2
-246 6 -252 15 -13 20 -10 251 4 265 8 8 60 12 169 12 122 0 159 3 168 14 8 9
11 47 9 107 l-3 94 -291 3 c-160 1 -293 -1 -297 -5z"/>
<path d="M2240 805 c0 -373 3 -475 13 -476 83 -4 213 4 219 14 4 7 8 119 8
250 0 130 4 237 8 237 5 0 31 -32 58 -70 92 -132 143 -205 186 -264 24 -33 45
-64 47 -70 2 -6 16 -27 31 -46 25 -33 52 -71 171 -245 81 -119 75 -115 187
-115 53 0 103 4 110 8 10 7 12 139 10 628 l-3 619 -115 0 -115 0 -3 -397 c-1
-221 -6 -398 -11 -398 -5 0 -31 33 -58 72 -27 40 -77 111 -109 158 -157 223
-275 391 -322 460 -81 116 -70 110 -199 110 l-113 0 0 -475z"/>
<path d="M3354 1267 c-3 -8 -4 -54 -2 -103 l3 -89 370 0 370 0 0 100 0 100
-368 3 c-300 2 -368 0 -373 -11z"/>
<path d="M4297 1274 c-4 -4 -7 -233 -7 -509 0 -376 -3 -504 -12 -513 -7 -7
-35 -12 -63 -12 -28 0 -56 -5 -63 -12 -19 -19 -16 -173 4 -192 14 -14 48 -16
262 -14 l247 3 0 105 0 105 -45 3 c-25 1 -55 5 -67 7 l-23 5 -2 513 -3 512
-111 3 c-60 1 -113 -1 -117 -4z"/>
<path d="M4704 1267 c-3 -8 -3 -56 -2 -108 l3 -94 240 -5 c259 -6 286 -11 334
-63 19 -21 24 -38 25 -81 1 -67 -17 -102 -66 -127 -33 -17 -61 -19 -272 -19
-129 0 -241 -3 -250 -6 -14 -5 -16 -47 -16 -365 0 -344 1 -359 19 -369 21 -11
179 -14 205 -4 14 5 16 37 16 255 l0 249 70 0 c66 0 71 -2 80 -24 5 -14 23
-55 41 -93 17 -37 47 -102 66 -143 87 -187 114 -238 129 -244 28 -11 209 -7
221 5 15 15 5 38 -106 274 -21 44 -49 105 -61 135 -13 30 -30 64 -37 75 -25
38 -16 62 32 85 53 26 118 96 146 159 30 66 30 246 0 312 -43 95 -115 154
-236 193 -67 22 -573 24 -581 3z"/>
<path d="M6035 1261 c-181 -54 -319 -180 -383 -351 -43 -115 -58 -287 -34
-385 22 -88 45 -160 56 -175 6 -8 20 -33 31 -54 26 -52 121 -147 181 -182 182
-107 421 -115 613 -21 41 20 88 56 135 102 140 141 205 345 176 553 -37 262
-191 447 -431 516 -78 22 -264 20 -344 -3z m302 -220 c78 -23 159 -102 202
-195 78 -172 39 -395 -89 -508 -81 -72 -111 -82 -235 -83 -120 0 -153 11 -237
77 -69 54 -138 215 -138 322 0 46 30 169 50 206 91 171 257 239 447 181z"/>
<path d="M6143 743 c-67 -60 -60 -149 16 -191 48 -27 65 -27 106 -2 73 45 81
135 19 190 -46 40 -97 41 -141 3z"/>
<path d="M7134 1260 c-103 -36 -182 -106 -227 -200 -18 -38 -22 -63 -22 -155
0 -93 4 -116 22 -150 56 -106 168 -185 283 -200 148 -19 197 -45 226 -120 15
-41 15 -45 -4 -87 -20 -46 -62 -80 -114 -92 l-28 -6 0 -110 0 -110 30 0 c37 0
126 24 166 44 17 9 51 34 76 55 146 129 150 392 6 528 -65 62 -195 113 -286
113 -137 0 -203 157 -104 247 40 36 87 47 147 34 58 -13 86 -37 110 -94 8 -20
19 -37 23 -37 62 -4 192 -1 200 4 17 10 2 105 -24 158 -42 83 -115 146 -209
178 -75 26 -199 26 -271 0z"/>
<path d="M8122 1260 c-254 -75 -421 -311 -422 -597 0 -170 56 -332 155 -444
36 -41 118 -109 132 -109 5 0 14 -5 21 -12 32 -32 192 -70 297 -70 279 0 492
159 577 430 30 96 30 298 0 394 -66 211 -209 353 -413 412 -79 23 -264 21
-347 -4z m305 -219 c66 -20 161 -102 191 -164 47 -100 47 -100 46 -227 0 -120
-2 -128 -32 -191 -36 -73 -103 -143 -173 -180 -38 -20 -58 -23 -154 -23 -96 0
-116 3 -155 23 -136 71 -210 202 -210 373 0 128 36 224 114 306 93 97 228 127
373 83z"/>
<path d="M8227 735 c-35 -34 -43 -54 -38 -99 2 -30 46 -82 80 -96 40 -16 72
-7 115 34 31 29 36 40 36 78 0 38 -5 50 -37 81 -30 31 -43 37 -78 37 -34 0
-48 -6 -78 -35z"/>
<path d="M3617 823 c-4 -3 -7 -180 -7 -393 0 -287 3 -389 12 -398 8 -8 46 -12
104 -12 85 0 94 2 108 22 14 19 16 73 16 386 0 231 -4 370 -10 383 -10 17 -22
19 -114 19 -56 0 -106 -3 -109 -7z"/>
</g>
</svg>
